<svg width="121" height="40" viewBox="0 0 121 40" fill="none" xmlns="http://www.w3.org/2000/svg">
<path d="M69.2424 14.8182H66.4448V11.4205H63.1025V14.8182H61.0897V17.4034H63.1025V25.2884C63.084 27.9567 65.0229 29.2678 67.5343 29.1939C68.4853 29.1662 69.1408 28.9815 69.5009 28.8615L68.9377 26.2486C68.753 26.2947 68.3745 26.3778 67.959 26.3778C67.1188 26.3778 66.4448 26.0824 66.4448 24.7344V17.4034H69.2424V14.8182ZM83.0433 18.5668C82.5817 16.1662 80.6612 14.6335 77.3374 14.6335C73.9212 14.6335 71.5945 16.3139 71.6037 18.9361C71.5945 21.0043 72.8686 22.3707 75.5923 22.9339L78.0114 23.4418C79.3132 23.728 79.9226 24.2543 79.9226 25.0575C79.9226 26.027 78.87 26.7564 77.282 26.7564C75.7493 26.7564 74.7521 26.0916 74.4659 24.8175L71.2067 25.1314C71.6222 27.7351 73.8104 29.277 77.2912 29.277C80.8366 29.277 83.3388 27.4396 83.348 24.7528C83.3388 22.7308 82.0369 21.4936 79.3594 20.9119L76.9403 20.3949C75.5 20.0717 74.9276 19.5732 74.9368 18.7514C74.9276 17.7912 75.9893 17.1264 77.3835 17.1264C78.9254 17.1264 79.7379 17.9666 79.9964 18.8991L83.0433 18.5668ZM86.104 29H89.4464V24.2358L90.6651 22.9339L95.0046 29H99.0025L93.1857 20.9396L98.6793 14.8182H94.7738L89.6772 20.5149H89.4464V10.0909H86.104V29ZM112.116 18.5668C111.654 16.1662 109.733 14.6335 106.41 14.6335C102.993 14.6335 100.667 16.3139 100.676 18.9361C100.667 21.0043 101.941 22.3707 104.665 22.9339L107.084 23.4418C108.385 23.728 108.995 24.2543 108.995 25.0575C108.995 26.027 107.942 26.7564 106.354 26.7564C104.822 26.7564 103.824 26.0916 103.538 24.8175L100.279 25.1314C100.694 27.7351 102.883 29.277 106.363 29.277C109.909 29.277 112.411 27.4396 112.42 24.7528C112.411 22.7308 111.109 21.4936 108.432 20.9119L106.013 20.3949C104.572 20.0717 104 19.5732 104.009 18.7514C104 17.7912 105.062 17.1264 106.456 17.1264C107.998 17.1264 108.81 17.9666 109.069 18.8991L112.116 18.5668ZM117.235 29.2031C118.325 29.2031 119.257 28.2983 119.267 27.1719C119.257 26.0639 118.325 25.1591 117.235 25.1591C116.109 25.1591 115.195 26.0639 115.204 27.1719C115.195 28.2983 116.109 29.2031 117.235 29.2031Z" fill="#F5F5F6"/>
<path d="M34.1422 5.85781C30.3647 2.08031 25.3422 0 20 0C14.6578 0 9.63531 2.08031 5.85781 5.85781C2.08031 9.63531 0 14.6578 0 20C0 25.3422 2.08039 30.3646 5.85781 34.1422C9.63523 37.9198 14.6578 40 20 40C25.3422 40 30.3647 37.9197 34.1422 34.1422C37.9197 30.3647 40 25.3422 40 20C40 14.6578 37.9196 9.63539 34.1422 5.85781Z" fill="#AC6DDE"/>
<path d="M16 14H29" stroke="#F5F5F6" stroke-width="2" stroke-linecap="round" stroke-linejoin="round"/>
<path d="M16 20H29" stroke="#F5F5F6" stroke-width="2" stroke-linecap="round" stroke-linejoin="round"/>
<path d="M16 26H29" stroke="#F5F5F6" stroke-width="2" stroke-linecap="round" stroke-linejoin="round"/>
<path d="M11 14H11.01" stroke="#F5F5F6" stroke-width="2" stroke-linecap="round" stroke-linejoin="round"/>
<path d="M11 20H11.01" stroke="#F5F5F6" stroke-width="2" stroke-linecap="round" stroke-linejoin="round"/>
<path d="M11 26H11.01" stroke="#F5F5F6" stroke-width="2" stroke-linecap="round" stroke-linejoin="round"/>
</svg>
